# xmcd
#
# Track frame offsets:
#	187
#	28925
#	64837
#	87262
#	106962
#	134737
#
# Disc length: 2289 seconds
#
# Revision: 1
# Processed by: cddbd v1.4PL0 Copyright (c) Steve Scherf et al.
# Submitted via: EasyCDDAExtractor 5.0.6
#
DISCID=5308ef06
DTITLE=Johnny Copeland - Ain't Nothin' But A Party
DYEAR=1987
DGENRE=Blues
TTITLE0=Ain't Nothin' But a Party
TTITLE1=Johnny Gone
TTITLE2=Houston
TTITLE3=Learned My Lessons
TTITLE4=Baby Please Don't Go
TTITLE5=Big Time
EXTD=
EXTT0=
EXTT1=
EXTT2=
EXTT3=
EXTT4=
EXTT5=
PLAYORDER=
